<svg version="1.1" id="Layer_1" xmlns="http://www.w3.org/2000/svg" xmlns:xlink="http://www.w3.org/1999/xlink" x="0px" y="0px"
	 width="100%" viewBox="0 0 512 512" enable-background="new 0 0 512 512" xml:space="preserve">
<path fill="#816AE2" opacity="1.000000" stroke="none" 
	d="
M289.000000,513.000000 
	C284.974823,513.000000 280.949615,513.000000 276.415710,512.546326 
	C276.272919,495.520813 275.928314,478.892975 277.228424,462.394745 
	C278.279602,449.055847 281.312042,435.873108 283.508911,422.510864 
	C283.734131,422.176849 283.936340,421.974487 284.500244,421.863342 
	C291.739716,427.330933 298.820312,432.514709 305.479645,438.192474 
	C311.055786,442.946716 318.494904,444.433044 325.412445,440.619690 
	C329.746185,438.230682 333.929108,435.316162 337.578644,431.979919 
	C356.935608,414.284790 372.731781,393.637177 384.780304,370.471741 
	C390.858490,358.785400 394.403625,345.781616 399.477844,333.429779 
	C406.626984,333.285034 413.541718,333.897980 420.122498,332.690582 
	C429.774658,330.919647 438.952820,327.372192 446.409424,319.965393 
	C447.182770,319.672119 447.701874,319.529816 448.053040,319.205658 
	C465.615875,302.992157 473.529083,283.139282 468.495453,259.518127 
	C463.413666,235.670868 448.740173,219.402405 425.255219,212.446030 
	C406.272461,206.823227 388.101196,209.448929 371.622559,221.903183 
	C352.309631,235.045959 342.878998,258.333832 346.503876,281.735809 
	C349.148804,298.811432 358.151459,312.202240 371.562317,322.761078 
	C363.244019,333.312744 353.852173,342.077240 342.621338,348.999512 
	C337.866394,351.930267 333.732941,355.975189 329.648132,359.861664 
	C323.972626,365.261627 322.298096,365.198853 318.109375,358.197876 
	C323.411255,347.595093 324.533569,336.576782 324.017151,325.334747 
	C323.113739,305.667938 315.564178,289.289307 299.620758,277.215485 
	C293.792419,272.801727 287.930969,268.431702 281.902771,263.757324 
	C276.663757,257.990295 271.606598,252.507690 266.366089,246.736221 
	C265.789429,246.277817 265.396118,246.108276 265.017700,245.969482 
	C265.032532,246.000244 265.091797,245.966263 265.144958,245.603012 
	C264.559265,244.074661 263.976746,242.874252 263.272675,241.749969 
	C256.962372,231.673630 253.587204,220.620453 252.337814,208.869659 
	C251.233414,198.482483 255.421204,191.630478 264.315491,189.868393 
	C268.864807,191.120193 272.996307,192.383438 277.176666,193.456436 
	C283.199371,195.002319 288.332611,193.649567 292.310028,188.597000 
	C300.322235,178.419022 302.890106,166.072266 305.720734,153.950119 
	C306.756256,149.515518 307.966492,146.440201 312.787140,145.804245 
	C314.100037,145.631058 315.401306,145.286026 316.673950,144.906113 
	C322.158752,143.268753 324.104004,140.096603 322.231506,134.754776 
	C320.868927,130.867508 319.114594,126.998238 316.854248,123.569695 
	C312.051666,116.285103 311.234802,108.596756 312.631470,100.181854 
	C314.096710,91.353600 316.022766,82.379768 315.739441,73.533875 
	C315.281006,59.220055 310.224762,46.566605 296.926575,38.384300 
	C291.887299,33.385330 286.968750,28.686415 282.492126,24.002148 
	C284.428925,24.013849 285.975677,23.755751 287.410461,24.047796 
	C300.397614,26.691254 313.627838,28.562937 326.264374,32.387196 
	C338.835541,36.191673 350.804596,41.985939 362.873260,47.207207 
	C361.726288,48.387833 360.758118,49.285622 359.759003,50.147533 
	C345.473328,62.471161 337.953339,79.563713 346.273865,98.737526 
	C347.521301,101.612061 348.249420,104.733521 349.016602,107.791229 
	C352.580811,121.996262 350.175903,136.303909 348.612152,150.362442 
	C346.254517,171.558624 358.904907,186.965012 375.982971,189.948288 
	C386.678986,191.816696 397.864655,192.260193 408.710846,191.539993 
	C422.115112,190.649902 435.318542,190.914871 448.352783,193.722458 
	C465.812195,197.483215 480.277588,206.654373 492.349640,219.761459 
	C494.208557,221.779770 496.658051,223.254105 498.915833,225.403046 
	C499.997375,233.423096 501.664215,241.001358 501.878326,248.620438 
	C502.660889,276.466339 501.797485,304.104980 494.211121,331.323334 
	C487.336212,355.989288 477.581909,379.227051 463.721619,400.642822 
	C451.651184,419.292938 437.545746,436.260345 420.704987,451.007660 
	C406.621948,463.340057 391.659119,474.245880 375.301788,483.249298 
	C348.962708,497.746887 320.933777,507.195038 291.066772,511.079742 
	C290.307434,511.178497 289.685822,512.336182 289.000000,513.000000 
z"/>
<path fill="#000000" opacity="1.000000" stroke="none" 
	d="
M289.468658,513.000000 
	C289.685822,512.336182 290.307434,511.178497 291.066772,511.079742 
	C320.933777,507.195038 348.962708,497.746887 375.301788,483.249298 
	C391.659119,474.245880 406.621948,463.340057 420.704987,451.007660 
	C437.545746,436.260345 451.651184,419.292938 463.721619,400.642822 
	C477.581909,379.227051 487.336212,355.989288 494.211121,331.323334 
	C501.797485,304.104980 502.660889,276.466339 501.878326,248.620438 
	C501.664215,241.001358 499.997375,233.423096 498.972229,225.002655 
	C496.679779,215.279037 494.588989,206.329269 492.108032,197.489014 
	C486.963959,179.159531 479.186096,161.937790 469.801819,145.401184 
	C460.021088,128.166061 448.356689,112.250900 434.449921,98.234474 
	C424.422974,88.128456 413.760162,78.384743 402.192017,70.149574 
	C389.869965,61.377701 376.148254,54.571892 363.037659,46.907692 
	C350.804596,41.985939 338.835541,36.191673 326.264374,32.387196 
	C313.627838,28.562937 300.397614,26.691254 287.410461,24.047796 
	C285.975677,23.755751 284.428925,24.013849 282.331665,23.691158 
	C281.151764,23.057993 280.546600,22.792864 280.000885,22.436714 
	C267.157928,14.055110 253.547852,8.737744 237.837708,11.998754 
	C233.212555,12.958813 228.624344,14.096771 223.670609,14.997404 
	C217.944366,11.754086 212.163986,10.538451 205.691986,10.939785 
	C200.139175,8.168308 194.874710,5.606089 189.666870,2.933556 
	C188.965256,2.573504 188.548599,1.658197 188.000000,1.000001 
	C296.288696,1.000000 404.577393,1.000000 512.933044,1.000000 
	C512.933044,171.551666 512.933044,342.103394 512.933044,513.000000 
	C438.646118,513.000000 364.291718,513.000000 289.468658,513.000000 
z"/>
<path fill="#000000" opacity="1.000000" stroke="none" 
	d="
M226.000000,513.000000 
	C151.036621,513.000000 76.073242,513.000000 1.054932,513.000000 
	C1.054932,342.453308 1.054932,171.906586 1.054932,1.000000 
	C53.687016,1.000000 106.374847,1.000000 159.552750,1.363873 
	C153.874329,5.459295 147.374115,8.744299 141.613037,13.024242 
	C132.349136,19.906452 128.218781,29.990648 126.089058,41.462288 
	C125.334091,48.556824 124.628143,55.222042 123.567299,61.941620 
	C111.288010,71.351547 98.647156,79.944633 87.645454,90.282181 
	C77.137566,100.155731 67.683502,111.353317 58.985996,122.888611 
	C51.702518,132.548508 46.179169,143.535522 39.568123,154.110992 
	C35.849560,161.460083 31.990776,168.458130 29.112198,175.838486 
	C20.048508,199.076828 13.509686,223.118912 12.264421,248.036453 
	C11.057495,272.186859 11.401605,296.394775 16.915060,320.292206 
	C23.653828,349.500641 34.766758,376.790405 51.052872,401.889160 
	C63.972466,421.799744 79.361679,439.686371 97.591866,454.972107 
	C102.781670,459.323669 108.493134,463.053040 114.089851,467.389954 
	C115.276253,468.441376 116.350349,469.153534 117.398262,469.902344 
	C131.791260,480.187378 147.217529,488.558777 163.936493,495.261749 
	C173.162628,498.599579 182.041931,502.131134 191.223801,504.479706 
	C201.668503,507.151306 212.383453,508.766296 223.400696,510.912659 
	C224.546967,511.656555 225.273468,512.328247 226.000000,513.000000 
z"/>
<path fill="#F8BA8F" opacity="1.000000" stroke="none" 
	d="
M226.468658,513.000000 
	C225.273468,512.328247 224.546967,511.656555 223.328552,510.537598 
	C218.564728,495.567688 219.386124,480.811279 221.578537,466.181244 
	C223.491821,453.413818 226.458450,440.804260 229.405914,428.067657 
	C244.358536,427.655609 258.878784,427.554016 273.361053,426.760376 
	C276.794525,426.572235 280.100830,424.062775 283.465637,422.621094 
	C281.312042,435.873108 278.279602,449.055847 277.228424,462.394745 
	C275.928314,478.892975 276.272919,495.520813 275.953491,512.546326 
	C259.645782,513.000000 243.291550,513.000000 226.468658,513.000000 
z"/>
<path fill="#1A3373" opacity="1.000000" stroke="none" 
	d="
M126.138077,41.032982 
	C128.218781,29.990648 132.349136,19.906452 141.613037,13.024242 
	C147.374115,8.744299 153.874329,5.459295 160.021408,1.363873 
	C169.020889,1.000000 178.041794,1.000000 187.531342,1.000001 
	C188.548599,1.658197 188.965256,2.573504 189.666870,2.933556 
	C194.874710,5.606089 200.139175,8.168308 205.502365,11.233715 
	C203.034500,12.733627 200.450104,13.764992 197.518890,14.843752 
	C187.769562,20.076580 184.428635,28.566814 184.071991,39.091103 
	C181.354172,43.251377 178.459885,46.902786 176.193207,50.909267 
	C173.927368,54.914288 172.289322,59.274502 169.801834,64.740936 
	C166.805069,49.525791 159.109406,40.576672 144.810944,39.394283 
	C138.673798,38.886780 132.367508,40.424496 126.138077,41.032982 
z"/>
<path fill="#9181F2" opacity="1.000000" stroke="none" 
	d="
M362.873260,47.207207 
	C376.148254,54.571892 389.869965,61.377701 402.192017,70.149574 
	C413.760162,78.384743 424.422974,88.128456 434.449921,98.234474 
	C448.356689,112.250900 460.021088,128.166061 469.801819,145.401184 
	C479.186096,161.937790 486.963959,179.159531 492.108032,197.489014 
	C494.588989,206.329269 496.679779,215.279037 498.890839,224.579590 
	C496.658051,223.254105 494.208557,221.779770 492.349640,219.761459 
	C480.277588,206.654373 465.812195,197.483215 448.352783,193.722458 
	C435.318542,190.914871 422.115112,190.649902 408.710846,191.539993 
	C397.864655,192.260193 386.678986,191.816696 375.982971,189.948288 
	C358.904907,186.965012 346.254517,171.558624 348.612152,150.362442 
	C350.175903,136.303909 352.580811,121.996262 349.016602,107.791229 
	C348.249420,104.733521 347.521301,101.612061 346.273865,98.737526 
	C337.953339,79.563713 345.473328,62.471161 359.759003,50.147533 
	C360.758118,49.285622 361.726288,48.387833 362.873260,47.207207 
z"/>
<path fill="#F8BA8F" opacity="1.000000" stroke="none" 
	d="
M399.094116,333.373566 
	C394.403625,345.781616 390.858490,358.785400 384.780304,370.471741 
	C372.731781,393.637177 356.935608,414.284790 337.578644,431.979919 
	C333.929108,435.316162 329.746185,438.230682 325.412445,440.619690 
	C318.494904,444.433044 311.055786,442.946716 305.479645,438.192474 
	C298.820312,432.514709 291.739716,427.330933 284.351288,421.567322 
	C279.666901,418.082916 275.472839,414.964386 271.097229,411.558899 
	C257.961212,398.824066 245.006744,386.376160 231.932037,373.614197 
	C222.925995,362.231476 215.736267,350.252808 210.405746,336.997192 
	C207.807755,330.536652 203.933517,324.268768 199.401718,318.970154 
	C188.437653,306.150909 185.882477,289.086609 193.646210,274.469116 
	C198.401825,265.515289 205.956421,259.871552 215.426483,255.902847 
	C219.891220,255.277618 223.966141,254.702240 227.870178,254.462082 
	C221.807541,273.969879 225.406021,291.266541 238.106689,306.682251 
	C241.590118,310.910370 245.765533,314.613342 248.928452,319.052460 
	C260.223053,334.904327 271.193542,350.986725 282.336761,366.946930 
	C289.326874,376.958710 297.112152,386.218170 307.477997,392.991791 
	C313.941010,397.215057 321.006958,398.696045 327.795471,394.906372 
	C335.703644,390.491699 343.735443,385.793549 350.407379,379.771271 
	C365.771423,365.903198 376.885071,348.694916 386.359680,330.227844 
	C390.849182,331.305206 394.971649,332.339386 399.094116,333.373566 
z"/>
<path fill="#F8BA8F" opacity="1.000000" stroke="none" 
	d="
M297.047241,38.684361 
	C310.224762,46.566605 315.281006,59.220055 315.739441,73.533875 
	C316.022766,82.379768 314.096710,91.353600 312.631470,100.181854 
	C311.234802,108.596756 312.051666,116.285103 316.854248,123.569695 
	C319.114594,126.998238 320.868927,130.867508 322.231506,134.754776 
	C324.104004,140.096603 322.158752,143.268753 316.673950,144.906113 
	C315.401306,145.286026 314.100037,145.631058 312.787140,145.804245 
	C307.966492,146.440201 306.756256,149.515518 305.720734,153.950119 
	C302.890106,166.072266 300.322235,178.419022 292.310028,188.597000 
	C288.332611,193.649567 283.199371,195.002319 277.176666,193.456436 
	C272.996307,192.383438 268.864807,191.120193 264.063416,189.648422 
	C250.511246,184.519653 239.974548,176.401840 233.267822,164.483444 
	C228.604523,156.196381 225.792862,146.867386 222.096924,137.592499 
	C220.815842,133.852402 220.054184,130.243423 218.249878,127.266365 
	C216.032852,123.608330 212.715820,120.635025 210.284866,117.084610 
	C206.051636,110.901955 207.332077,105.208618 213.587753,100.760330 
	C218.393585,97.343002 223.430710,98.340775 227.858093,103.839066 
	C229.615082,106.021049 230.844330,108.623276 232.549606,110.853951 
	C233.246902,111.766090 234.531219,112.582993 235.622375,112.690056 
	C236.160828,112.742897 236.945435,111.128838 237.482574,110.191086 
	C238.929260,107.665390 239.833618,104.633224 241.803391,102.643913 
	C245.853470,98.553734 248.607834,94.127312 248.707092,87.905815 
	C251.205612,80.338737 252.819763,72.761742 256.034271,65.938721 
	C264.113251,48.790455 277.476379,38.887539 297.047241,38.684361 
z"/>
<path fill="#FCAD6E" opacity="1.000000" stroke="none" 
	d="
M385.992645,330.184692 
	C376.885071,348.694916 365.771423,365.903198 350.407379,379.771271 
	C343.735443,385.793549 335.703644,390.491699 327.795471,394.906372 
	C321.006958,398.696045 313.941010,397.215057 307.477997,392.991791 
	C297.112152,386.218170 289.326874,376.958710 282.336761,366.946930 
	C271.193542,350.986725 260.223053,334.904327 248.928452,319.052460 
	C245.765533,314.613342 241.590118,310.910370 238.106689,306.682251 
	C225.406021,291.266541 221.807541,273.969879 228.292908,254.423248 
	C245.762924,254.444000 260.542114,265.995819 264.836426,282.606445 
	C267.182526,291.681427 271.385254,299.550568 278.078278,306.510254 
	C291.445404,324.033813 304.652344,341.265137 317.859283,358.496490 
	C322.298096,365.198853 323.972626,365.261627 329.648132,359.861664 
	C333.732941,355.975189 337.866394,351.930267 342.621338,348.999512 
	C353.852173,342.077240 363.244019,333.312744 371.880371,322.965820 
	C376.982697,325.370453 381.487671,327.777557 385.992645,330.184692 
z"/>
<path fill="#4F71B6" opacity="1.000000" stroke="none" 
	d="
M371.956390,221.800415 
	C388.101196,209.448929 406.272461,206.823227 425.255219,212.446030 
	C448.740173,219.402405 463.413666,235.670868 468.495453,259.518127 
	C473.529083,283.139282 465.615875,302.992157 448.053040,319.205658 
	C447.701874,319.529816 447.182770,319.672119 446.029114,319.945862 
	C438.058990,319.246368 438.392792,313.074310 437.182861,308.007019 
	C451.730682,295.923553 456.732483,280.338257 453.507202,262.662170 
	C447.996948,232.463120 413.873016,216.321625 386.450470,230.354553 
	C384.906250,231.144775 382.891083,232.393631 382.495178,233.818130 
	C380.408844,241.324539 383.399780,253.626984 392.017273,255.336945 
	C379.131317,269.025848 385.812225,287.851105 399.640869,293.084900 
	C406.333649,295.617920 412.673523,294.554718 419.013489,292.347656 
	C419.778870,298.455536 421.845734,303.363190 427.566406,305.747406 
	C429.996338,306.760162 432.590942,307.377777 435.022064,308.503845 
	C431.950500,310.835663 429.223694,313.564209 425.942657,314.722198 
	C406.558319,321.563354 389.076233,319.053650 374.170258,303.767700 
	C358.682465,287.885101 356.754669,261.785889 370.296143,244.323059 
	C373.300751,240.448395 376.893921,237.030136 380.523468,233.066040 
	C375.093201,231.245270 371.733032,227.799789 371.956390,221.800415 
z"/>
<path fill="#FBAD6E" opacity="1.000000" stroke="none" 
	d="
M222.154007,138.003860 
	C225.792862,146.867386 228.604523,156.196381 233.267822,164.483444 
	C239.974548,176.401840 250.511246,184.519653 263.667450,189.574860 
	C255.421204,191.630478 251.233414,198.482483 252.337814,208.869659 
	C253.587204,220.620453 256.962372,231.673630 263.272675,241.749969 
	C263.976746,242.874252 264.559265,244.074661 264.779633,245.591568 
	C262.867462,245.234787 261.312225,244.631653 259.889557,243.801422 
	C244.094543,234.583786 227.168594,230.351135 208.407379,232.079071 
	C195.193344,233.083511 183.880112,230.384918 175.650208,219.217789 
	C182.239090,209.452499 188.877090,200.055435 195.508057,190.653412 
	C199.398560,185.137039 203.277863,179.612762 207.435425,173.896469 
	C214.391830,162.557831 220.187881,151.055771 222.154007,138.003860 
z"/>
<path fill="#3D58A0" opacity="1.000000" stroke="none" 
	d="
M296.926575,38.384300 
	C277.476379,38.887539 264.113251,48.790455 256.034271,65.938721 
	C252.819763,72.761742 251.205612,80.338737 248.390869,87.647903 
	C244.775177,71.636169 233.973740,62.470211 219.729416,56.296207 
	C216.404465,54.855057 213.239716,52.982822 210.154297,51.063000 
	C203.304016,46.800587 201.115875,40.354244 202.166183,32.659378 
	C202.476471,30.386030 203.345886,28.188999 204.017456,25.761723 
	C204.075806,25.566448 204.187317,25.174387 204.533844,25.098106 
	C208.894348,23.037041 212.927582,21.089939 216.915115,19.053389 
	C219.319870,17.825212 221.653580,16.457966 224.019196,15.153204 
	C228.624344,14.096771 233.212555,12.958813 237.837708,11.998754 
	C253.547852,8.737744 267.157928,14.055110 280.000885,22.436714 
	C280.546600,22.792864 281.151764,23.057993 281.889709,23.676510 
	C286.968750,28.686415 291.887299,33.385330 296.926575,38.384300 
z"/>
<path fill="#3D59A1" opacity="1.000000" stroke="none" 
	d="
M436.895172,308.211334 
	C438.392792,313.074310 438.058990,319.246368 445.696472,320.012024 
	C438.952820,327.372192 429.774658,330.919647 420.122498,332.690582 
	C413.541718,333.897980 406.626984,333.285034 399.477844,333.429779 
	C394.971649,332.339386 390.849182,331.305206 386.359680,330.227844 
	C381.487671,327.777557 376.982697,325.370453 372.159668,322.758606 
	C358.151459,312.202240 349.148804,298.811432 346.503876,281.735809 
	C342.878998,258.333832 352.309631,235.045959 371.622559,221.903183 
	C371.733032,227.799789 375.093201,231.245270 380.523468,233.066040 
	C376.893921,237.030136 373.300751,240.448395 370.296143,244.323059 
	C356.754669,261.785889 358.682465,287.885101 374.170258,303.767700 
	C389.076233,319.053650 406.558319,321.563354 425.942657,314.722198 
	C429.223694,313.564209 431.950500,310.835663 435.319092,308.487366 
	C436.101593,308.165100 436.498383,308.188232 436.895172,308.211334 
z"/>
<path fill="#3D58A0" opacity="1.000000" stroke="none" 
	d="
M318.109375,358.197876 
	C304.652344,341.265137 291.445404,324.033813 278.121735,306.042603 
	C277.831604,302.793915 277.637024,300.306366 277.488434,297.816071 
	C276.798615,286.256714 277.445984,274.877014 282.084625,264.041748 
	C287.930969,268.431702 293.792419,272.801727 299.620758,277.215485 
	C315.564178,289.289307 323.113739,305.667938 324.017151,325.334747 
	C324.533569,336.576782 323.411255,347.595093 318.109375,358.197876 
z"/>
<path fill="#FB90CD" opacity="1.000000" stroke="none" 
	d="
M281.902771,263.757324 
	C277.445984,274.877014 276.798615,286.256714 277.488434,297.816071 
	C277.637024,300.306366 277.831604,302.793915 277.961548,305.750397 
	C271.385254,299.550568 267.182526,291.681427 264.836426,282.606445 
	C260.542114,265.995819 245.762924,254.444000 228.463776,254.088013 
	C223.966141,254.702240 219.891220,255.277618 215.369690,255.524109 
	C212.903275,247.502182 210.883453,239.809143 208.863617,232.116104 
	C227.168594,230.351135 244.094543,234.583786 259.889557,243.801422 
	C261.312225,244.631653 262.867462,245.234787 264.726440,245.954819 
	C265.091797,245.966263 265.032532,246.000244 265.192017,246.247925 
	C265.750793,246.672104 266.150146,246.848602 266.549469,247.025101 
	C271.606598,252.507690 276.663757,257.990295 281.902771,263.757324 
z"/>
<path fill="#2D448C" opacity="1.000000" stroke="none" 
	d="
M271.278778,411.845825 
	C275.472839,414.964386 279.666901,418.082916 284.009888,421.497498 
	C283.936340,421.974487 283.734131,422.176849 283.508911,422.510864 
	C280.100830,424.062775 276.794525,426.572235 273.361053,426.760376 
	C258.878784,427.554016 244.358536,427.655609 229.157288,427.973755 
	C228.295120,427.877686 228.127853,427.818268 227.892319,427.396545 
	C224.659424,421.598724 226.194000,416.252014 228.577072,410.927734 
	C243.110031,411.243652 257.194397,411.544739 271.278778,411.845825 
z"/>
<path fill="#FBAD6E" opacity="1.000000" stroke="none" 
	d="
M266.366089,246.736221 
	C266.150146,246.848602 265.750793,246.672104 265.177155,246.217178 
	C265.396118,246.108276 265.789429,246.277817 266.366089,246.736221 
z"/>
<path fill="#F88FCD" opacity="1.000000" stroke="none" 
	d="
M223.670609,14.997410 
	C221.653580,16.457966 219.319870,17.825212 216.915115,19.053389 
	C212.927582,21.089939 208.894348,23.037041 204.212799,24.927532 
	C198.942993,23.020575 197.423477,19.463507 197.865723,14.796356 
	C200.450104,13.764992 203.034500,12.733627 205.808502,11.408332 
	C212.163986,10.538451 217.944366,11.754086 223.670609,14.997410 
z"/>
<path fill="#9181F2" opacity="1.000000" stroke="none" 
	d="
M113.965378,467.067749 
	C108.493134,463.053040 102.781670,459.323669 97.591866,454.972107 
	C79.361679,439.686371 63.972466,421.799744 51.052872,401.889160 
	C34.766758,376.790405 23.653828,349.500641 16.915060,320.292206 
	C11.401605,296.394775 11.057495,272.186859 12.264421,248.036453 
	C13.509686,223.118912 20.048508,199.076828 29.112198,175.838486 
	C31.990776,168.458130 35.849560,161.460083 39.905106,154.194382 
	C41.464485,155.037354 42.542747,155.861191 43.267841,156.925598 
	C53.177441,171.472687 67.623505,176.691742 84.343704,175.771255 
	C94.404045,175.217392 104.407639,173.138107 114.366005,171.350372 
	C127.106026,169.063278 145.582703,182.588318 146.957504,195.526123 
	C147.027679,196.186523 146.916245,196.870911 147.023743,197.521957 
	C148.353928,205.578003 143.612259,211.878342 140.927170,218.779953 
	C130.850632,244.680084 126.812981,271.470337 127.828064,299.274780 
	C128.532303,318.564453 131.551254,337.238007 137.636017,355.522614 
	C145.853348,380.215485 150.792114,405.410767 146.920319,431.548096 
	C145.226288,442.983856 141.214859,453.740753 130.884628,460.212921 
	C125.806602,463.394440 119.639580,464.837799 113.965378,467.067749 
z"/>
<path fill="#816AE2" opacity="1.000000" stroke="none" 
	d="
M114.089859,467.389954 
	C119.639580,464.837799 125.806602,463.394440 130.884628,460.212921 
	C141.214859,453.740753 145.226288,442.983856 146.920319,431.548096 
	C150.792114,405.410767 145.853348,380.215485 137.636017,355.522614 
	C131.551254,337.238007 128.532303,318.564453 127.828064,299.274780 
	C126.812981,271.470337 130.850632,244.680084 140.927170,218.779953 
	C143.612259,211.878342 148.353928,205.578003 147.023743,197.521957 
	C146.916245,196.870911 147.027679,196.186523 146.957504,195.526123 
	C145.582703,182.588318 127.106026,169.063278 114.366005,171.350372 
	C104.407639,173.138107 94.404045,175.217392 84.343704,175.771255 
	C67.623505,176.691742 53.177441,171.472687 43.267841,156.925598 
	C42.542747,155.861191 41.464485,155.037354 40.213425,154.018295 
	C46.179169,143.535522 51.702518,132.548508 58.985996,122.888611 
	C67.683502,111.353317 77.137566,100.155731 87.645454,90.282181 
	C98.647156,79.944633 111.288010,71.351547 123.777847,62.238258 
	C123.934807,68.938164 123.609497,75.402313 123.102875,81.852226 
	C121.291389,104.914909 112.640259,124.301453 93.039024,137.866745 
	C91.757240,138.753815 91.215408,140.710052 90.329391,142.168961 
	C91.810303,143.062149 93.268990,144.676392 94.776016,144.722870 
	C101.079399,144.917221 107.488197,145.289719 113.693413,144.419998 
	C135.222702,141.402481 150.937515,129.372299 162.629257,111.535370 
	C164.032959,109.393898 165.373215,107.210815 167.381897,104.037521 
	C170.693237,117.235397 177.395279,126.985039 185.345322,136.105927 
	C189.926453,141.361755 194.537643,146.792557 197.942795,152.818466 
	C201.723892,159.509613 204.147552,166.967804 207.162231,174.092041 
	C203.277863,179.612762 199.398560,185.137039 195.508057,190.653412 
	C188.877090,200.055435 182.239090,209.452499 175.335876,219.371735 
	C172.748810,224.630371 169.993408,229.208389 168.182404,234.133682 
	C157.070740,264.353149 157.962982,295.194519 164.728317,326.016937 
	C169.816910,349.200195 176.820847,371.997162 177.030457,396.477966 
	C177.041809,401.177063 177.089066,405.415649 177.061691,410.106873 
	C176.132965,420.138397 175.885742,429.819336 174.296082,439.274567 
	C171.165787,457.893616 167.290436,476.387421 163.723267,494.933014 
	C147.217529,488.558777 131.791260,480.187378 117.398262,469.902344 
	C116.350349,469.153534 115.276253,468.441376 114.089859,467.389954 
z"/>
<path fill="#2B428C" opacity="1.000000" stroke="none" 
	d="
M207.435425,173.896469 
	C204.147552,166.967804 201.723892,159.509613 197.942795,152.818466 
	C194.537643,146.792557 189.926453,141.361755 185.345322,136.105927 
	C177.395279,126.985039 170.693237,117.235397 167.381897,104.037521 
	C165.373215,107.210815 164.032959,109.393898 162.629257,111.535370 
	C150.937515,129.372299 135.222702,141.402481 113.693413,144.419998 
	C107.488197,145.289719 101.079399,144.917221 94.776016,144.722870 
	C93.268990,144.676392 91.810303,143.062149 90.329391,142.168961 
	C91.215408,140.710052 91.757240,138.753815 93.039024,137.866745 
	C112.640259,124.301453 121.291389,104.914909 123.102875,81.852226 
	C123.609497,75.402313 123.934807,68.938164 124.132736,62.183903 
	C124.628143,55.222042 125.334091,48.556824 126.089058,41.462292 
	C132.367508,40.424496 138.673798,38.886780 144.810944,39.394283 
	C159.109406,40.576672 166.805069,49.525791 169.801834,64.740936 
	C172.289322,59.274502 173.927368,54.914288 176.193207,50.909267 
	C178.459885,46.902786 181.354172,43.251377 184.408905,39.156906 
	C191.216003,34.565319 197.587555,30.261160 203.959091,25.956997 
	C203.345886,28.188999 202.476471,30.386030 202.166183,32.659378 
	C201.115875,40.354244 203.304016,46.800587 210.154297,51.063000 
	C213.239716,52.982822 216.404465,54.855057 219.729416,56.296207 
	C233.973740,62.470211 244.775177,71.636169 248.235046,87.981232 
	C248.607834,94.127312 245.853470,98.553734 241.803391,102.643913 
	C239.833618,104.633224 238.929260,107.665390 237.482574,110.191086 
	C236.945435,111.128838 236.160828,112.742897 235.622375,112.690056 
	C234.531219,112.582993 233.246902,111.766090 232.549606,110.853951 
	C230.844330,108.623276 229.615082,106.021049 227.858093,103.839066 
	C223.430710,98.340775 218.393585,97.343002 213.587753,100.760330 
	C207.332077,105.208618 206.051636,110.901955 210.284866,117.084610 
	C212.715820,120.635025 216.032852,123.608330 218.249878,127.266365 
	C220.054184,130.243423 220.815842,133.852402 222.096924,137.592499 
	C220.187881,151.055771 214.391830,162.557831 207.435425,173.896469 
z"/>
<path fill="#FBAD6D" opacity="1.000000" stroke="none" 
	d="
M163.936493,495.261749 
	C167.290436,476.387421 171.165787,457.893616 174.296082,439.274567 
	C175.885742,429.819336 176.132965,420.138397 177.338135,410.317810 
	C179.069214,411.455414 180.228485,413.222565 181.863800,414.153320 
	C196.150146,422.284637 211.657974,426.396088 227.960602,427.758881 
	C228.127853,427.818268 228.295120,427.877686 228.711014,428.031036 
	C226.458450,440.804260 223.491821,453.413818 221.578537,466.181244 
	C219.386124,480.811279 218.564728,495.567688 222.908813,510.465454 
	C212.383453,508.766296 201.668503,507.151306 191.223801,504.479706 
	C182.041931,502.131134 173.162628,498.599579 163.936493,495.261749 
z"/>
<path fill="#F06DBA" opacity="1.000000" stroke="none" 
	d="
M204.017456,25.761724 
	C197.587555,30.261160 191.216003,34.565319 184.507538,38.803680 
	C184.428635,28.566814 187.769562,20.076580 197.518890,14.843752 
	C197.423477,19.463507 198.942993,23.020575 203.866272,25.003815 
	C204.187317,25.174387 204.075806,25.566448 204.017456,25.761724 
z"/>
<path fill="#2B428C" opacity="1.000000" stroke="none" 
	d="
M177.066360,396.017517 
	C176.820847,371.997162 169.816910,349.200195 164.728317,326.016937 
	C157.962982,295.194519 157.070740,264.353149 168.182404,234.133682 
	C169.993408,229.208389 172.748810,224.630371 175.382034,219.737885 
	C183.880112,230.384918 195.193344,233.083511 208.407379,232.079071 
	C210.883453,239.809143 212.903275,247.502182 214.979889,255.573959 
	C205.956421,259.871552 198.401825,265.515289 193.646210,274.469116 
	C185.882477,289.086609 188.437653,306.150909 199.401718,318.970154 
	C203.933517,324.268768 207.807755,330.536652 210.405746,336.997192 
	C215.736267,350.252808 222.925995,362.231476 231.855438,373.976532 
	C230.585114,378.385040 228.410080,382.055176 228.135757,385.862244 
	C227.558411,393.874756 227.977905,401.959137 227.548615,410.013428 
	C216.285400,407.620575 205.379013,405.541992 194.670593,402.713806 
	C188.634064,401.119537 182.923660,398.290405 177.066360,396.017517 
z"/>
<path fill="#3D59A0" opacity="1.000000" stroke="none" 
	d="
M227.988281,410.014008 
	C227.977905,401.959137 227.558411,393.874756 228.135757,385.862244 
	C228.410080,382.055176 230.585114,378.385040 231.975693,374.290588 
	C245.006744,386.376160 257.961212,398.824066 271.097229,411.558899 
	C257.194397,411.544739 243.110031,411.243652 228.539642,410.703644 
	C228.053635,410.464691 227.988281,410.014008 227.988281,410.014008 
z"/>
<path fill="#6289CC" opacity="1.000000" stroke="none" 
	d="
M437.182861,308.007019 
	C436.498383,308.188232 436.101593,308.165100 435.407776,308.158478 
	C432.590942,307.377777 429.996338,306.760162 427.566406,305.747406 
	C421.845734,303.363190 419.778870,298.455536 419.220581,292.089905 
	C433.237305,281.269440 434.111603,263.685608 421.282318,253.738220 
	C412.920227,247.254578 403.189178,247.686676 392.176666,255.030609 
	C383.399780,253.626984 380.408844,241.324539 382.495178,233.818130 
	C382.891083,232.393631 384.906250,231.144775 386.450470,230.354553 
	C413.873016,216.321625 447.996948,232.463120 453.507202,262.662170 
	C456.732483,280.338257 451.730682,295.923553 437.182861,308.007019 
z"/>
<path fill="#D9E1FD" opacity="1.000000" stroke="none" 
	d="
M392.017273,255.336945 
	C403.189178,247.686676 412.920227,247.254578 421.282318,253.738220 
	C434.111603,263.685608 433.237305,281.269440 419.200623,291.697144 
	C412.673523,294.554718 406.333649,295.617920 399.640869,293.084900 
	C385.812225,287.851105 379.131317,269.025848 392.017273,255.336945 
z"/>
<path fill="#1C3472" opacity="1.000000" stroke="none" 
	d="
M227.548615,410.013428 
	C227.988281,410.014008 228.053635,410.464691 228.091064,410.688782 
	C226.194000,416.252014 224.659424,421.598724 227.892319,427.396545 
	C211.657974,426.396088 196.150146,422.284637 181.863800,414.153320 
	C180.228485,413.222565 179.069214,411.455414 177.412766,409.865173 
	C177.089066,405.415649 177.041809,401.177063 177.030457,396.477966 
	C182.923660,398.290405 188.634064,401.119537 194.670593,402.713806 
	C205.379013,405.541992 216.285400,407.620575 227.548615,410.013428 
z"/>
</svg>