<svg version="1.1" id="Layer_1" xmlns="http://www.w3.org/2000/svg" xmlns:xlink="http://www.w3.org/1999/xlink" x="0px" y="0px"
	 width="100%" viewBox="0 0 512 512" enable-background="new 0 0 512 512" xml:space="preserve">
<path fill="#000000" opacity="1.000000" stroke="none" 
	d="
M255.000000,0.999999 
	C340.962433,1.000000 426.924896,1.000000 512.943665,1.000000 
	C512.943665,171.554550 512.943665,342.109131 512.943665,513.000000 
	C438.644989,513.000000 364.289490,513.000000 289.132385,512.662720 
	C289.168701,511.886780 289.960297,511.236328 290.851532,511.041321 
	C303.192383,508.341431 315.659515,506.135620 327.871735,502.950134 
	C346.166229,498.178162 363.158752,490.122864 379.576019,480.823364 
	C397.000153,470.953522 412.848267,458.933746 427.248322,445.096558 
	C434.005188,438.603851 439.992218,431.299896 446.214264,424.262909 
	C457.266388,411.763153 466.122681,397.758301 473.972504,383.097321 
	C484.433289,363.559998 492.340454,342.972260 496.710938,321.289673 
	C499.445770,307.721741 501.074615,293.816132 501.809357,279.988190 
	C502.781494,261.692291 502.493561,243.296082 498.922241,225.198715 
	C497.372162,217.343796 495.015778,209.647980 493.028381,201.431641 
	C492.869019,182.502808 485.873871,166.747498 473.889801,152.713455 
	C473.593994,152.266678 473.295105,152.089645 473.027954,151.970184 
	C473.059692,152.027756 473.183228,151.982849 473.097717,151.623413 
	C470.969147,147.636688 469.197296,143.820999 466.832397,140.417358 
	C459.688477,130.135620 452.314270,120.013847 444.892578,109.532928 
	C441.775604,105.938538 438.995361,102.429939 435.775940,99.385880 
	C428.350128,92.364571 420.799927,85.468185 413.140411,78.702034 
	C396.308929,63.833717 376.939087,52.939758 356.757782,43.439972 
	C351.100159,40.776791 344.993805,39.066833 338.910217,36.583824 
	C337.804443,35.980583 336.890900,35.674931 335.957672,35.451492 
	C322.656799,32.266872 309.353271,29.093365 296.026520,25.952789 
	C296.002655,25.988398 296.071899,25.937969 295.959656,25.647610 
	C295.254547,25.275646 294.661621,25.194040 293.757660,24.969944 
	C283.211792,13.641581 270.776367,6.222745 255.963806,2.807644 
	C255.526840,2.706900 255.316177,1.624633 255.000000,0.999999 
z"/>
<path fill="#000000" opacity="1.000000" stroke="none" 
	d="
M226.000000,513.000000 
	C151.034210,513.000000 76.068413,513.000000 1.051311,513.000000 
	C1.051311,342.445404 1.051311,171.890762 1.051311,1.000000 
	C73.687752,1.000000 146.376022,1.000000 219.659393,1.380290 
	C219.923065,2.107774 219.645020,2.675215 219.252502,2.770329 
	C205.143097,6.189462 194.152802,14.080878 185.618301,26.117744 
	C182.965195,28.175821 180.628036,30.088423 178.208054,31.889751 
	C174.486557,34.659870 170.708160,37.353569 166.568695,40.075089 
	C165.544235,40.156963 164.817123,40.074501 164.278564,40.354599 
	C150.324097,47.612000 136.108307,54.428478 122.559341,62.380367 
	C114.787338,66.941757 108.103157,73.356644 100.580048,78.973450 
	C96.250015,82.414886 91.973007,85.533951 88.350250,89.284897 
	C80.900414,96.998329 73.169937,104.570976 66.710350,113.078804 
	C57.906227,124.674576 49.436947,136.659760 42.163551,149.251678 
	C30.531113,169.390091 22.123293,190.996780 17.654993,213.918579 
	C15.383906,225.568939 12.870148,237.316406 12.271462,249.111603 
	C11.533509,263.650604 12.072636,278.331726 13.197535,292.863342 
	C14.085445,304.333527 16.049900,315.821014 18.671095,327.035522 
	C24.196875,350.676941 33.573586,372.872864 45.988785,393.748749 
	C57.763374,413.547455 71.959869,431.414154 89.038239,447.378601 
	C95.413322,452.929169 101.486267,458.382812 107.956406,463.315491 
	C113.039513,467.190704 118.613335,470.422241 124.073730,474.275055 
	C138.390244,481.887573 152.152008,490.310120 166.939667,496.122620 
	C181.984741,502.036377 198.040329,505.379211 214.049713,509.829529 
	C217.828552,510.208710 221.224915,510.523712 224.580231,511.084290 
	C225.144424,511.178558 225.531235,512.334534 226.000000,513.000000 
z"/>
<path fill="#4FABF7" opacity="1.000000" stroke="none" 
	d="
M493.025574,201.879898 
	C495.015778,209.647980 497.372162,217.343796 498.922241,225.198715 
	C502.493561,243.296082 502.781494,261.692291 501.809357,279.988190 
	C501.074615,293.816132 499.445770,307.721741 496.710938,321.289673 
	C492.340454,342.972260 484.433289,363.559998 473.972504,383.097321 
	C466.122681,397.758301 457.266388,411.763153 446.214264,424.262909 
	C439.992218,431.299896 434.005188,438.603851 427.248322,445.096558 
	C412.848267,458.933746 397.000153,470.953522 379.576019,480.823364 
	C363.158752,490.122864 346.166229,498.178162 327.871735,502.950134 
	C315.659515,506.135620 303.192383,508.341431 290.851532,511.041321 
	C289.960297,511.236328 289.168701,511.886780 288.665405,512.662720 
	C278.979095,513.000000 268.958221,513.000000 258.455200,512.572510 
	C258.003876,511.481079 257.971161,510.807129 258.074402,510.154663 
	C263.879700,473.468079 269.696320,436.783325 275.863403,400.066101 
	C280.806274,401.024902 285.397583,402.016022 290.234833,403.238342 
	C297.247559,407.364716 303.791046,411.733856 310.830688,415.049622 
	C322.999420,420.781281 335.690430,424.442871 349.469116,422.135712 
	C353.679749,421.430664 358.030182,421.232544 362.306519,421.316284 
	C371.439301,421.495117 377.045624,417.359192 379.416992,408.525665 
	C380.225769,405.512970 381.186768,402.422974 382.729584,399.743286 
	C404.890839,361.251373 419.532166,320.152344 426.341949,276.096313 
	C440.547974,274.413818 453.098816,269.734283 464.313904,260.856293 
	C483.396179,245.593384 492.371185,225.746719 493.025574,201.879898 
z"/>
<path fill="#3C58A0" opacity="1.000000" stroke="none" 
	d="
M185.897141,25.922417 
	C194.152802,14.080878 205.143097,6.189462 219.252502,2.770329 
	C219.645020,2.675215 219.923065,2.107774 220.127243,1.380290 
	C231.354233,1.000000 242.708450,1.000000 254.531342,0.999999 
	C255.316177,1.624633 255.526840,2.706900 255.963806,2.807644 
	C270.776367,6.222745 283.211792,13.641581 293.899292,25.254932 
	C294.925262,25.767597 295.498596,25.852785 296.071899,25.937969 
	C296.071899,25.937969 296.002655,25.988398 295.931488,26.304081 
	C301.596649,30.734293 307.136932,35.164719 313.121704,38.878941 
	C319.771454,43.005882 320.272797,47.703835 313.495819,51.537922 
	C306.858490,55.293003 299.872406,58.431622 292.606812,61.841934 
	C280.778442,62.201324 269.380859,62.868374 257.987488,62.803112 
	C251.050598,62.763390 244.112396,61.059666 237.190140,61.160080 
	C233.761734,61.209820 230.367966,63.646858 226.539093,65.004128 
	C212.794449,63.677860 201.074310,58.804569 194.009628,47.033554 
	C190.188492,40.666885 188.530792,33.001778 185.897141,25.922417 
z"/>
<path fill="#2B438C" opacity="1.000000" stroke="none" 
	d="
M275.511810,400.098358 
	C269.696320,436.783325 263.879700,473.468079 258.074402,510.154663 
	C257.971161,510.807129 258.003876,511.481079 257.986572,512.572510 
	C252.977905,513.000000 247.955811,513.000000 242.482513,512.613342 
	C248.338638,493.761627 249.544281,474.641205 244.132980,456.214508 
	C238.212341,436.053406 229.600082,416.682678 222.125366,396.587036 
	C221.201904,393.897614 220.225021,391.618408 219.440628,389.274811 
	C214.524811,374.587341 209.651917,359.885498 205.090347,345.292572 
	C206.967941,347.308197 208.425873,349.306091 210.088333,351.116180 
	C217.450180,359.131592 224.870743,367.093079 232.384369,375.371460 
	C236.147308,378.438019 239.795944,381.207123 243.694183,384.243774 
	C254.466461,389.707001 264.989136,394.902679 275.511810,400.098358 
z"/>
<path fill="#BAE949" opacity="1.000000" stroke="none" 
	d="
M222.160919,396.967499 
	C229.600082,416.682678 238.212341,436.053406 244.132980,456.214508 
	C249.544281,474.641205 248.338638,493.761627 242.015656,512.613342 
	C236.977905,513.000000 231.955811,513.000000 226.466858,513.000000 
	C225.531235,512.334534 225.144424,511.178558 224.580231,511.084290 
	C221.224915,510.523712 217.828552,510.208710 213.935577,509.442017 
	C217.104019,488.887085 214.105911,469.279480 207.588684,450.182465 
	C203.195648,437.309784 197.829666,424.769135 193.163391,411.847229 
	C197.742615,400.083618 206.339401,395.818359 218.173691,396.980927 
	C219.489624,397.110199 220.831223,396.978302 222.160919,396.967499 
z"/>
<path fill="#4FABF7" opacity="1.000000" stroke="none" 
	d="
M293.039429,61.840813 
	C299.872406,58.431622 306.858490,55.293003 313.495819,51.537922 
	C320.272797,47.703835 319.771454,43.005882 313.121704,38.878941 
	C307.136932,35.164719 301.596649,30.734293 295.955353,26.268473 
	C309.353271,29.093365 322.656799,32.266872 335.957672,35.451492 
	C336.890900,35.674931 337.804443,35.980583 338.649658,36.913368 
	C338.381836,40.878170 338.144226,44.175709 338.011444,47.477467 
	C337.769806,53.485512 336.117401,59.040901 331.968475,63.457378 
	C318.493866,77.800880 316.371002,94.439041 323.366180,111.989403 
	C329.208405,126.647133 341.764862,134.481171 358.396362,127.252716 
	C364.799866,124.469620 371.203217,121.677422 377.520386,118.706070 
	C398.093018,109.029564 419.287842,104.456848 441.880951,110.381042 
	C442.817963,110.626740 443.975189,110.032600 445.029816,109.829727 
	C452.314270,120.013847 459.688477,130.135620 466.832397,140.417358 
	C469.197296,143.820999 470.969147,147.636688 472.740479,151.600342 
	C467.046906,147.891403 461.895935,143.405289 456.155914,139.877747 
	C432.316101,125.226860 397.879578,127.171661 376.685516,144.145233 
	C349.408813,162.316147 338.826691,201.664856 352.520721,232.254089 
	C359.805939,248.527588 371.691193,260.320007 386.857330,269.224548 
	C381.731567,274.390625 377.024597,279.545563 371.786652,284.088318 
	C358.389618,295.707214 345.614105,307.736603 339.182159,324.895538 
	C338.918457,325.599030 338.223389,326.140808 337.925751,326.512573 
	C331.327118,318.299255 324.825806,310.207123 318.101624,301.837219 
	C315.009369,299.054047 312.140045,296.548645 309.077759,293.753235 
	C299.823914,287.089752 291.040375,280.261108 281.601440,274.507874 
	C275.627136,270.866425 271.141449,266.904205 269.034576,260.003540 
	C265.648132,248.911728 260.028412,239.006149 251.265472,230.699341 
	C250.396011,228.299759 249.609390,226.262405 248.914368,223.792587 
	C247.736938,214.792114 247.050385,205.998337 239.838181,199.332565 
	C239.553879,197.133484 239.100723,195.338791 239.032715,193.529648 
	C238.623474,182.642822 242.014084,178.805145 252.383453,178.814407 
	C259.518066,180.728775 266.221680,182.684448 273.005524,184.304153 
	C278.776520,185.682037 282.241974,184.166229 285.068848,178.958282 
	C286.471375,176.374405 287.781464,173.435791 288.000305,170.571075 
	C288.658081,161.960495 288.790771,153.308365 289.063721,144.670395 
	C289.200317,140.346664 290.325256,137.329285 295.227173,135.833481 
	C302.568298,133.593338 305.518250,127.958244 303.430786,120.566002 
	C302.000153,115.499672 299.882263,110.500984 297.284698,105.918083 
	C292.529938,97.529327 290.194641,88.682610 290.878754,79.137672 
	C291.293579,73.350174 292.299194,67.605003 293.039429,61.840813 
z"/>
<path fill="#4F71B6" opacity="1.000000" stroke="none" 
	d="
M377.004669,144.037476 
	C397.879578,127.171661 432.316101,125.226860 456.155914,139.877747 
	C461.895935,143.405289 467.046906,147.891403 472.825989,151.959778 
	C473.183228,151.982849 473.059692,152.027756 473.129089,152.188171 
	C473.329376,152.666916 473.558807,152.878464 473.886719,152.983200 
	C485.873871,166.747498 492.869019,182.502808 493.028381,201.431641 
	C492.371185,225.746719 483.396179,245.593384 464.063263,260.618286 
	C459.511536,259.072815 456.174561,256.950592 455.282074,252.336716 
	C454.880157,250.258926 454.380554,248.200058 454.211121,245.938416 
	C471.428009,230.570511 478.168610,211.853424 472.817200,189.626007 
	C468.328949,170.983719 456.420502,158.214951 438.560211,151.474121 
	C422.880280,145.556213 407.458618,147.123352 392.848389,155.263092 
	C391.138580,156.215698 389.364868,158.622940 389.185638,160.504883 
	C387.769775,175.370865 394.981842,183.842514 409.571533,185.541595 
	C401.616241,191.242737 398.219238,198.641449 400.442261,207.846451 
	C402.409241,215.991226 408.045776,220.863159 416.285400,222.576920 
	C422.034485,223.772690 427.075806,221.846832 432.135193,219.231735 
	C432.601379,221.833084 432.922821,224.110809 432.974731,226.394669 
	C433.183167,235.568405 437.746277,241.659180 446.502808,244.335007 
	C448.359680,244.902420 450.195129,245.539856 451.965149,246.477509 
	C443.565613,254.572098 433.225952,257.445282 422.332642,257.885315 
	C404.346985,258.611816 389.583496,251.757935 377.514160,238.183594 
	C360.352051,218.881317 360.703766,184.922455 378.915375,166.631638 
	C381.797882,163.736618 385.179352,161.338409 388.697327,158.404297 
	C379.313843,153.025574 377.658325,150.815689 377.004669,144.037476 
z"/>
<path fill="#73C3F9" opacity="1.000000" stroke="none" 
	d="
M444.892578,109.532928 
	C443.975189,110.032600 442.817963,110.626740 441.880951,110.381042 
	C419.287842,104.456848 398.093018,109.029564 377.520386,118.706070 
	C371.203217,121.677422 364.799866,124.469620 358.396362,127.252716 
	C341.764862,134.481171 329.208405,126.647133 323.366180,111.989403 
	C316.371002,94.439041 318.493866,77.800880 331.968475,63.457378 
	C336.117401,59.040901 337.769806,53.485512 338.011444,47.477467 
	C338.144226,44.175709 338.381836,40.878170 338.832703,37.249184 
	C344.993805,39.066833 351.100159,40.776791 356.757782,43.439972 
	C376.939087,52.939758 396.308929,63.833717 413.140411,78.702034 
	C420.799927,85.468185 428.350128,92.364571 435.775940,99.385880 
	C438.995361,102.429939 441.775604,105.938538 444.892578,109.532928 
z"/>
<path fill="#4FABF7" opacity="1.000000" stroke="none" 
	d="
M295.959656,25.647612 
	C295.498596,25.852785 294.925262,25.767597 294.210327,25.397423 
	C294.661621,25.194040 295.254547,25.275646 295.959656,25.647612 
z"/>
<path fill="#4FABF7" opacity="1.000000" stroke="none" 
	d="
M473.889801,152.713455 
	C473.558807,152.878464 473.329376,152.666916 473.097351,152.130585 
	C473.295105,152.089645 473.593994,152.266678 473.889801,152.713455 
z"/>
<path fill="#2A428C" opacity="1.000000" stroke="none" 
	d="
M192.898926,412.079956 
	C197.829666,424.769135 203.195648,437.309784 207.588684,450.182465 
	C214.105911,469.279480 217.104019,488.887085 213.539307,509.460358 
	C198.040329,505.379211 181.984741,502.036377 166.939667,496.122620 
	C152.152008,490.310120 138.390244,481.887573 123.992783,473.838989 
	C122.900955,454.622528 122.253174,436.160278 121.029770,417.736267 
	C119.031609,387.644684 114.331482,357.930756 106.492546,328.806915 
	C100.915909,308.088104 98.850983,287.246277 102.630867,266.096710 
	C109.382996,228.316544 128.919250,197.529099 155.792419,171.104706 
	C159.368149,180.972412 166.639008,187.014648 175.584000,190.567032 
	C185.813629,194.629593 196.511414,197.513306 207.194412,201.048737 
	C207.682632,201.318497 207.907272,201.528809 207.903503,202.176300 
	C207.259094,206.776291 206.768112,211.019150 206.248245,215.511658 
	C201.606796,216.832672 196.036163,217.977249 190.795624,219.983887 
	C164.118866,230.198593 147.651138,257.708893 154.204483,287.564575 
	C156.072968,296.077026 161.261307,303.860748 164.931000,312.444092 
	C165.208649,348.517578 176.775833,380.941101 192.898926,412.079956 
z"/>
<path fill="#73C3F9" opacity="1.000000" stroke="none" 
	d="
M88.907333,447.057037 
	C71.959869,431.414154 57.763374,413.547455 45.988785,393.748749 
	C33.573586,372.872864 24.196875,350.676941 18.671095,327.035522 
	C16.049900,315.821014 14.085445,304.333527 13.197535,292.863342 
	C12.072636,278.331726 11.533509,263.650604 12.271462,249.111603 
	C12.870148,237.316406 15.383906,225.568939 17.654993,213.918579 
	C22.123293,190.996780 30.531113,169.390091 42.163551,149.251678 
	C49.436947,136.659760 57.906227,124.674576 66.710350,113.078804 
	C73.169937,104.570976 80.900414,96.998329 88.350250,89.284897 
	C91.973007,85.533951 96.250015,82.414886 100.761620,79.261887 
	C104.361343,81.786713 107.586304,83.878181 110.473030,86.362633 
	C125.221016,99.055443 130.471848,114.460594 122.904419,131.789001 
	C117.851242,143.360092 111.608131,154.430862 105.578384,165.552505 
	C86.743767,200.292282 71.017975,235.978989 67.750900,276.129883 
	C66.044075,297.106018 67.788025,317.605316 72.852936,337.895508 
	C77.968323,358.387878 83.717239,378.729340 88.464348,399.304016 
	C92.101395,415.067535 94.250954,431.093475 88.907333,447.057037 
z"/>
<path fill="#4FABF7" opacity="1.000000" stroke="none" 
	d="
M89.038239,447.378601 
	C94.250954,431.093475 92.101395,415.067535 88.464348,399.304016 
	C83.717239,378.729340 77.968323,358.387878 72.852936,337.895508 
	C67.788025,317.605316 66.044075,297.106018 67.750900,276.129883 
	C71.017975,235.978989 86.743767,200.292282 105.578384,165.552505 
	C111.608131,154.430862 117.851242,143.360092 122.904419,131.789001 
	C130.471848,114.460594 125.221016,99.055443 110.473030,86.362633 
	C107.586304,83.878181 104.361343,81.786713 101.110825,79.225555 
	C108.103157,73.356644 114.787338,66.941757 122.559341,62.380367 
	C136.108307,54.428478 150.324097,47.612000 164.278564,40.354599 
	C164.817123,40.074501 165.544235,40.156963 166.368774,40.330109 
	C156.285172,50.209209 152.085999,62.091732 152.918457,76.049660 
	C153.564972,86.889809 157.061386,96.826622 161.717422,106.449310 
	C168.148422,119.740288 174.666580,132.989105 181.025452,146.567947 
	C178.851929,149.161133 176.800385,151.442337 174.391739,153.559189 
	C167.832275,152.923355 155.526688,164.587418 155.660736,170.810852 
	C128.919250,197.529099 109.382996,228.316544 102.630867,266.096710 
	C98.850983,287.246277 100.915909,308.088104 106.492546,328.806915 
	C114.331482,357.930756 119.031609,387.644684 121.029770,417.736267 
	C122.253174,436.160278 122.900955,454.622528 123.888206,473.503662 
	C118.613335,470.422241 113.039513,467.190704 107.956406,463.315491 
	C101.486267,458.382812 95.413322,452.929169 89.038239,447.378601 
z"/>
<path fill="#2B438C" opacity="1.000000" stroke="none" 
	d="
M181.147415,146.255966 
	C174.666580,132.989105 168.148422,119.740288 161.717422,106.449310 
	C157.061386,96.826622 153.564972,86.889809 152.918457,76.049660 
	C152.085999,62.091732 156.285172,50.209209 166.753998,40.334713 
	C170.708160,37.353569 174.486557,34.659870 178.208054,31.889751 
	C180.628036,30.088423 182.965195,28.175821 185.618301,26.117746 
	C188.530792,33.001778 190.188492,40.666885 194.009628,47.033554 
	C201.074310,58.804569 212.794449,63.677860 226.469986,65.358124 
	C225.835571,68.339294 224.415375,70.890961 223.942368,73.607544 
	C222.013794,84.683922 220.337662,95.805084 218.651123,106.922287 
	C218.108765,110.497398 217.663940,113.993530 212.645477,114.263168 
	C210.848206,112.210960 209.087250,110.451187 208.107651,108.330490 
	C207.476440,106.964050 208.006042,105.067635 207.991455,103.408966 
	C207.949554,98.646751 205.310577,95.692810 201.126114,94.052231 
	C196.938965,92.410591 192.722321,91.925652 189.049850,95.345192 
	C185.729019,98.437317 185.336899,102.138252 186.894394,106.262024 
	C187.827469,108.732513 188.485062,111.306160 189.391769,113.787659 
	C194.036240,126.498894 190.520996,137.115799 181.147415,146.255966 
z"/>
<path fill="#FCAD6E" opacity="1.000000" stroke="none" 
	d="
M318.324493,302.114990 
	C324.825806,310.207123 331.327118,318.299255 337.925751,326.512573 
	C338.223389,326.140808 338.918457,325.599030 339.182159,324.895538 
	C345.614105,307.736603 358.389618,295.707214 371.786652,284.088318 
	C377.024597,279.545563 381.731567,274.390625 387.216064,269.283630 
	C393.832397,271.087311 399.912994,273.121857 405.993408,275.569580 
	C404.752777,287.880463 400.997772,299.061066 395.871887,309.759491 
	C385.996155,330.371552 375.018890,350.287506 358.787506,366.808380 
	C354.683838,370.985229 349.841583,372.609680 344.298981,371.851959 
	C339.045807,371.133850 333.872589,369.824432 328.668976,368.752045 
	C324.945618,367.984711 320.938141,365.880981 317.567017,366.639252 
	C308.193756,368.747467 299.890320,373.133942 294.006134,381.363770 
	C289.212341,388.068573 290.035400,395.559113 289.988861,403.007141 
	C285.397583,402.016022 280.806274,401.024902 275.863403,400.066101 
	C264.989136,394.902679 254.466461,389.707001 243.962952,383.969818 
	C245.793961,382.624023 247.615952,381.841736 249.416046,381.011993 
	C264.600037,374.012909 278.155151,364.798981 289.239166,351.684601 
	C302.451050,336.984497 312.180695,320.596405 318.324493,302.114990 
z"/>
<path fill="#F8BA8F" opacity="1.000000" stroke="none" 
	d="
M290.234833,403.238373 
	C290.035400,395.559113 289.212341,388.068573 294.006134,381.363770 
	C299.890320,373.133942 308.193756,368.747467 317.567017,366.639252 
	C320.938141,365.880981 324.945618,367.984711 328.668976,368.752045 
	C333.872589,369.824432 339.045807,371.133850 344.298981,371.851959 
	C349.841583,372.609680 354.683838,370.985229 358.787506,366.808380 
	C375.018890,350.287506 385.996155,330.371552 395.871887,309.759491 
	C400.997772,299.061066 404.752777,287.880463 406.413269,275.546326 
	C413.195587,275.459320 419.557770,275.808746 425.919983,276.158173 
	C419.532166,320.152344 404.890839,361.251373 382.729584,399.743286 
	C381.186768,402.422974 380.225769,405.512970 379.416992,408.525665 
	C377.045624,417.359192 371.439301,421.495117 362.306519,421.316284 
	C358.030182,421.232544 353.679749,421.430664 349.469116,422.135712 
	C335.690430,424.442871 322.999420,420.781281 310.830688,415.049622 
	C303.791046,411.733856 297.247559,407.364716 290.234833,403.238373 
z"/>
<path fill="#3D59A1" opacity="1.000000" stroke="none" 
	d="
M426.341949,276.096313 
	C419.557770,275.808746 413.195587,275.459320 406.413513,275.133148 
	C399.912994,273.121857 393.832397,271.087311 387.393005,268.993652 
	C371.691193,260.320007 359.805939,248.527588 352.520721,232.254089 
	C338.826691,201.664856 349.408813,162.316147 376.685516,144.145233 
	C377.658325,150.815689 379.313843,153.025574 388.697327,158.404297 
	C385.179352,161.338409 381.797882,163.736618 378.915375,166.631638 
	C360.703766,184.922455 360.352051,218.881317 377.514160,238.183594 
	C389.583496,251.757935 404.346985,258.611816 422.332642,257.885315 
	C433.225952,257.445282 443.565613,254.572098 452.278809,246.458359 
	C453.086945,246.115372 453.506073,246.123978 453.925232,246.132599 
	C454.380554,248.200058 454.880157,250.258926 455.282074,252.336716 
	C456.174561,256.950592 459.511536,259.072815 463.770081,260.776245 
	C453.098816,269.734283 440.547974,274.413818 426.341949,276.096313 
z"/>
<path fill="#F8BA8F" opacity="1.000000" stroke="none" 
	d="
M213.013031,114.402588 
	C217.663940,113.993530 218.108765,110.497398 218.651123,106.922287 
	C220.337662,95.805084 222.013794,84.683922 223.942368,73.607544 
	C224.415375,70.890961 225.835571,68.339294 226.889420,65.357803 
	C230.367966,63.646858 233.761734,61.209820 237.190140,61.160080 
	C244.112396,61.059666 251.050598,62.763390 257.987488,62.803112 
	C269.380859,62.868374 280.778442,62.201324 292.606842,61.841934 
	C292.299194,67.605003 291.293579,73.350174 290.878754,79.137672 
	C290.194641,88.682610 292.529938,97.529327 297.284698,105.918083 
	C299.882263,110.500984 302.000153,115.499672 303.430786,120.566002 
	C305.518250,127.958244 302.568298,133.593338 295.227173,135.833481 
	C290.325256,137.329285 289.200317,140.346664 289.063721,144.670395 
	C288.790771,153.308365 288.658081,161.960495 288.000305,170.571075 
	C287.781464,173.435791 286.471375,176.374405 285.068848,178.958282 
	C282.241974,184.166229 278.776520,185.682037 273.005524,184.304153 
	C266.221680,182.684448 259.518066,180.728775 252.271759,178.511566 
	C246.796082,174.524048 241.583389,171.235718 236.904800,167.310745 
	C220.500656,153.548889 214.092087,135.149734 213.013031,114.402588 
z"/>
<path fill="#3C58A0" opacity="1.000000" stroke="none" 
	d="
M164.927277,311.978638 
	C161.261307,303.860748 156.072968,296.077026 154.204483,287.564575 
	C147.651138,257.708893 164.118866,230.198593 190.795624,219.983887 
	C196.036163,217.977249 201.606796,216.832672 206.248245,215.511658 
	C206.768112,211.019150 207.259094,206.776291 208.287689,202.200195 
	C223.741318,206.486847 237.610123,212.980072 248.822769,224.225037 
	C249.609390,226.262405 250.396011,228.299759 250.931152,230.541962 
	C240.392593,221.757065 228.161377,217.645737 214.801559,215.995331 
	C209.834991,215.381790 207.962311,218.117233 207.337418,221.902191 
	C205.667252,232.018600 203.342865,242.192398 203.230789,252.364899 
	C203.022308,271.288757 212.097321,285.759521 228.894363,294.262939 
	C245.128189,302.481293 258.416260,313.211639 267.132935,329.460541 
	C270.150696,335.085999 274.459686,340.018738 278.001587,345.544800 
	C264.901917,359.095612 250.064087,369.386627 232.270081,375.074036 
	C224.870743,367.093079 217.450180,359.131592 210.088333,351.116180 
	C208.425873,349.306091 206.967941,347.308197 205.117035,345.252747 
	C204.818207,345.108765 204.908173,345.141052 204.896759,344.851959 
	C204.639618,344.057556 204.393906,343.552277 204.012207,342.728241 
	C200.038208,338.861908 196.725204,334.313293 192.255936,331.969330 
	C182.077347,326.631134 172.639984,320.560394 164.927277,311.978638 
z"/>
<path fill="#9ED233" opacity="1.000000" stroke="none" 
	d="
M164.931000,312.444092 
	C172.639984,320.560394 182.077347,326.631134 192.255936,331.969330 
	C196.725204,334.313293 200.038208,338.861908 203.976654,343.027771 
	C204.354126,344.144379 204.631149,344.642731 204.908173,345.141052 
	C204.908173,345.141052 204.818207,345.108765 204.791519,345.148590 
	C209.651917,359.885498 214.524811,374.587341 219.440628,389.274811 
	C220.225021,391.618408 221.201904,393.897614 222.125366,396.587036 
	C220.831223,396.978302 219.489624,397.110199 218.173691,396.980927 
	C206.339401,395.818359 197.742615,400.083618 193.163391,411.847229 
	C176.775833,380.941101 165.208649,348.517578 164.931000,312.444092 
z"/>
<path fill="#AAB8F0" opacity="1.000000" stroke="none" 
	d="
M232.384384,375.371460 
	C250.064087,369.386627 264.901917,359.095612 278.223328,345.480499 
	C278.622406,345.139313 279.067169,345.014191 279.348633,345.187805 
	C282.746307,347.533417 285.862518,349.705414 288.978729,351.877411 
	C278.155151,364.798981 264.600037,374.012909 249.416046,381.011993 
	C247.615952,381.841736 245.793961,382.624023 243.713348,383.702271 
	C239.795944,381.207123 236.147308,378.438019 232.384384,375.371460 
z"/>
<path fill="#4F71B6" opacity="1.000000" stroke="none" 
	d="
M279.067139,345.014191 
	C279.067169,345.014191 278.622406,345.139313 278.400635,345.203613 
	C274.459686,340.018738 270.150696,335.085999 267.132935,329.460541 
	C258.416260,313.211639 245.128189,302.481293 228.894363,294.262939 
	C212.097321,285.759521 203.022308,271.288757 203.230789,252.364899 
	C203.342865,242.192398 205.667252,232.018600 207.337418,221.902191 
	C207.962311,218.117233 209.834991,215.381790 214.801559,215.995331 
	C228.161377,217.645737 240.392593,221.757065 251.013977,230.904175 
	C260.028412,239.006149 265.648132,248.911728 269.034576,260.003540 
	C271.141449,266.904205 275.627136,270.866425 281.601440,274.507874 
	C291.040375,280.261108 299.823914,287.089752 308.989105,294.127838 
	C307.173523,299.394623 305.845184,304.369843 303.222473,308.528809 
	C295.444336,320.863129 287.156006,332.875763 279.067139,345.014191 
z"/>
<path fill="#FEAA7B" opacity="1.000000" stroke="none" 
	d="
M212.645477,114.263168 
	C214.092087,135.149734 220.500656,153.548889 236.904800,167.310745 
	C241.583389,171.235718 246.796082,174.524048 251.875549,178.407166 
	C242.014084,178.805145 238.623474,182.642822 239.032715,193.529648 
	C239.100723,195.338791 239.553879,197.133484 239.555069,199.190170 
	C229.920166,194.558792 220.559250,189.672104 210.965652,184.537231 
	C204.713669,181.133347 198.718689,177.930099 192.668808,174.834167 
	C185.420593,171.125000 180.271790,165.542969 177.145767,158.029099 
	C176.518890,156.522308 175.556519,155.155106 174.748825,153.723541 
	C176.800385,151.442337 178.851929,149.161133 181.025452,146.567947 
	C190.520996,137.115799 194.036240,126.498894 189.391769,113.787659 
	C188.485062,111.306160 187.827469,108.732513 186.894394,106.262024 
	C185.336899,102.138252 185.729019,98.437317 189.049850,95.345192 
	C192.722321,91.925652 196.938965,92.410591 201.126114,94.052231 
	C205.310577,95.692810 207.949554,98.646751 207.991455,103.408966 
	C208.006042,105.067635 207.476440,106.964050 208.107651,108.330490 
	C209.087250,110.451187 210.848206,112.210960 212.645477,114.263168 
z"/>
<path fill="#D9E0FC" opacity="1.000000" stroke="none" 
	d="
M279.348602,345.187805 
	C287.156006,332.875763 295.444336,320.863129 303.222473,308.528809 
	C305.845184,304.369843 307.173523,299.394623 309.182037,294.417847 
	C312.140045,296.548645 315.009369,299.054047 318.101624,301.837219 
	C312.180695,320.596405 302.451050,336.984497 289.239166,351.684601 
	C285.862518,349.705414 282.746307,347.533417 279.348602,345.187805 
z"/>
<path fill="#B9E84B" opacity="1.000000" stroke="none" 
	d="
M211.198334,184.785400 
	C220.559250,189.672104 229.920166,194.558792 239.564194,199.587891 
	C247.050385,205.998337 247.736938,214.792114 248.914368,223.792587 
	C237.610123,212.980072 223.741318,206.486847 208.441147,201.843079 
	C207.907272,201.528809 207.682632,201.318497 207.121368,200.682587 
	C203.757187,192.448380 204.227356,190.780472 211.198334,184.785400 
z"/>
<path fill="#6289CC" opacity="1.000000" stroke="none" 
	d="
M454.211121,245.938416 
	C453.506073,246.123978 453.086945,246.115372 452.354126,246.125885 
	C450.195129,245.539856 448.359680,244.902420 446.502808,244.335007 
	C437.746277,241.659180 433.183167,235.568405 432.974731,226.394669 
	C432.922821,224.110809 432.601379,221.833084 432.315308,218.948334 
	C442.631256,208.359497 441.720764,193.300369 430.253204,186.131332 
	C423.623260,181.986557 416.777222,182.305618 409.837341,185.291077 
	C394.981842,183.842514 387.769775,175.370865 389.185638,160.504883 
	C389.364868,158.622940 391.138580,156.215698 392.848389,155.263092 
	C407.458618,147.123352 422.880280,145.556213 438.560211,151.474121 
	C456.420502,158.214951 468.328949,170.983719 472.817200,189.626007 
	C478.168610,211.853424 471.428009,230.570511 454.211121,245.938416 
z"/>
<path fill="#D8E1FD" opacity="1.000000" stroke="none" 
	d="
M409.571533,185.541595 
	C416.777222,182.305618 423.623260,181.986557 430.253204,186.131332 
	C441.720764,193.300369 442.631256,208.359497 432.046631,218.627533 
	C427.075806,221.846832 422.034485,223.772690 416.285400,222.576920 
	C408.045776,220.863159 402.409241,215.991226 400.442261,207.846451 
	C398.219238,198.641449 401.616241,191.242737 409.571533,185.541595 
z"/>
<path fill="#9FD233" opacity="1.000000" stroke="none" 
	d="
M210.965652,184.537231 
	C204.227356,190.780472 203.757187,192.448380 206.932739,200.543091 
	C196.511414,197.513306 185.813629,194.629593 175.584000,190.567032 
	C166.639008,187.014648 159.368149,180.972412 155.792419,171.104706 
	C155.526688,164.587418 167.832275,152.923355 174.391739,153.559189 
	C175.556519,155.155106 176.518890,156.522308 177.145767,158.029099 
	C180.271790,165.542969 185.420593,171.125000 192.668808,174.834167 
	C198.718689,177.930099 204.713669,181.133347 210.965652,184.537231 
z"/>
<path fill="#2B438C" opacity="1.000000" stroke="none" 
	d="
M204.896759,344.851959 
	C204.631149,344.642731 204.354126,344.144379 204.112640,343.346497 
	C204.393906,343.552277 204.639618,344.057556 204.896759,344.851959 
z"/>
</svg>